<svg width="15" height="20" viewBox="0 0 15 20" fill="none" xmlns="http://www.w3.org/2000/svg">
<path d="M13.7754 4.24414L8.85352 9.16602L13.7344 14.0469C14.1445 14.416 14.1445 15.0312 13.7344 15.4004C13.3652 15.8105 12.75 15.8105 12.3809 15.4004L7.45898 10.5195L2.57812 15.4004C2.20898 15.8105 1.59375 15.8105 1.22461 15.4004C0.814453 15.0312 0.814453 14.416 1.22461 14.0059L6.10547 9.125L1.22461 4.24414C0.814453 3.875 0.814453 3.25977 1.22461 2.84961C1.59375 2.48047 2.20898 2.48047 2.61914 2.84961L7.5 7.77148L12.3809 2.89062C12.75 2.48047 13.3652 2.48047 13.7754 2.89062C14.1445 3.25977 14.1445 3.875 13.7754 4.24414Z" fill="#025584"/>
</svg>