<svg width="18" height="17" viewBox="0 0 18 17" fill="none" xmlns="http://www.w3.org/2000/svg">
<path id="Combined Shape" fill-rule="evenodd" clip-rule="evenodd" d="M4.96048 0H13.3544C15.6679 0 17.5434 1.87513 17.5434 4.189V12.5829C17.5434 14.8964 15.6683 16.7719 13.3544 16.7719H4.96048C2.64696 16.7719 0.771484 14.8968 0.771484 12.5829V4.189C0.771484 1.87548 2.64662 0 4.96048 0ZM2.44922 12.5825C2.44922 13.9699 3.57365 15.0943 4.96103 15.0943H13.3549C14.7424 15.0943 15.8668 13.9699 15.8668 12.5825V4.18856C15.8668 2.80113 14.7423 1.67676 13.3549 1.67676H4.96103C3.57359 1.67676 2.44922 2.80119 2.44922 4.18856V12.5825ZM4.96497 8.38551C4.96497 6.0698 6.84223 4.19254 9.15795 4.19254C11.4737 4.19254 13.3509 6.0698 13.3509 8.38551C13.3509 10.7012 11.4737 12.5785 9.15795 12.5785C6.84223 12.5785 4.96497 10.7012 4.96497 8.38551ZM11.6722 8.38575C11.6722 6.99632 10.5458 5.86996 9.15641 5.86996C7.76698 5.86996 6.64062 6.99632 6.64062 8.38575C6.64062 9.77518 7.76698 10.9015 9.15641 10.9015C10.5458 10.9015 11.6722 9.77518 11.6722 8.38575ZM13.3503 5.03136C12.8872 5.03136 12.5117 4.65591 12.5117 4.19277C12.5117 3.72962 12.8872 3.35417 13.3503 3.35417C13.8135 3.35417 14.1889 3.72962 14.1889 4.19277C14.1889 4.65591 13.8135 5.03136 13.3503 5.03136Z" fill="#025584"/>
</svg>
