<svg width="94" height="154" viewBox="0 0 94 154" fill="none" xmlns="http://www.w3.org/2000/svg">
<g id="Isolation_Mode" clip-path="url(#clip0_729_1667)">
<path id="Vector" d="M4.48488 97.5203C4.48488 97.1403 4.58488 96.8503 4.77488 96.6503C4.96488 96.4503 5.22488 96.3503 5.54488 96.3503C5.86488 96.3503 6.11488 96.4503 6.30488 96.6503C6.49488 96.8503 6.59488 97.1403 6.59488 97.5203C6.59488 97.9003 6.49488 98.1903 6.30488 98.3903C6.11488 98.5903 5.85488 98.6903 5.54488 98.6903C5.23488 98.6903 4.96488 98.5903 4.77488 98.3903C4.58488 98.1903 4.48488 97.9003 4.48488 97.5203ZM7.02488 98.4903C7.10488 98.6703 7.24488 98.8203 7.43488 98.9203C7.61488 99.0203 7.81488 99.0703 8.01488 99.0703H13.1049C13.1049 99.0703 13.0849 98.9803 13.0649 98.8903C13.0349 98.8003 13.0249 98.7303 13.0049 98.6803C12.9949 98.6303 12.9749 98.5603 12.9549 98.4503C12.9349 98.3403 12.9149 98.2103 12.8849 98.0603C12.8649 97.9103 12.8449 97.7403 12.8149 97.5403C12.7749 97.2503 12.7049 96.9803 12.6049 96.7403C12.5049 96.4903 12.3649 96.2903 12.2049 96.1103C12.0449 95.9303 11.8449 95.7803 11.6049 95.6803C11.3649 95.5803 11.1049 95.5303 10.8149 95.5303C10.2849 95.5303 9.83488 95.6803 9.47488 95.9903C9.10488 96.3003 8.90488 96.6803 8.86488 97.1203H9.45488C9.51488 96.8503 9.67488 96.6103 9.94488 96.4103C10.2249 96.2103 10.5149 96.1103 10.8249 96.1103C11.1849 96.1103 11.4849 96.2203 11.7349 96.4503C11.9849 96.6803 12.1349 97.0203 12.2049 97.4603C12.2349 97.6403 12.2749 97.8403 12.3149 98.0603C12.3549 98.2803 12.3949 98.4203 12.4149 98.4703H8.02488C7.78488 98.4703 7.58488 98.4003 7.45488 98.2703C7.31488 98.1403 7.24488 97.9003 7.23488 97.5603V97.5003C7.23488 96.9403 7.08488 96.5103 6.78488 96.2003C6.48488 95.8903 6.07488 95.7303 5.54488 95.7303C5.01488 95.7303 4.60488 95.8903 4.31488 96.2003C4.01488 96.5103 3.85488 96.9503 3.85488 97.5003V97.5603C3.85488 97.9003 3.77488 98.1403 3.63488 98.2703C3.49488 98.4003 3.30488 98.4703 3.06488 98.4703H2.45488C2.23488 98.4703 2.04488 98.4003 1.89488 98.2603C1.75488 98.1203 1.68488 97.9303 1.68488 97.6803V95.9903H1.07488V99.0803C1.07488 99.4803 1.02488 99.7703 0.924883 99.9303C0.824883 100.09 0.674883 100.17 0.464883 100.17C0.294883 100.17 0.144883 100.13 0.00488281 100.05V100.63L0.0548828 100.66C0.0548828 100.66 0.154883 100.7 0.244883 100.73C0.334883 100.75 0.444883 100.76 0.554883 100.76C0.954883 100.76 1.23488 100.62 1.41488 100.34C1.59488 100.06 1.68488 99.6403 1.68488 99.0803V98.5203C1.71488 98.6703 1.80488 98.8003 1.97488 98.9003C2.13488 99.0003 2.29488 99.0503 2.45488 99.0503H3.08488C3.28488 99.0503 3.47488 99.0003 3.65488 98.9003C3.83488 98.7903 3.97488 98.6503 4.06488 98.4703C4.19488 98.7303 4.39488 98.9303 4.63488 99.0703C4.88488 99.2103 5.19488 99.2703 5.54488 99.2703C6.25488 99.2703 6.75488 99.0103 7.02488 98.4703" fill="#B01E41"/>
<path id="Vector_2" d="M15.6249 94.4501H15.0549C14.8949 94.4501 14.8149 94.3601 14.8149 94.1801C14.8149 94.1101 14.8349 94.0401 14.8649 94.0001C14.9049 93.9601 14.9449 93.9301 15.0049 93.9301C15.1449 93.9301 15.2049 94.0001 15.2149 94.1301H15.6049C15.5949 93.9601 15.5349 93.8301 15.4149 93.7501C15.3049 93.6601 15.1649 93.6201 15.0049 93.6201C14.8249 93.6201 14.6749 93.6601 14.5649 93.7501C14.4549 93.8501 14.3949 93.9701 14.3949 94.1401C14.3949 94.2401 14.4249 94.3401 14.4949 94.4201V94.4401H14.2649V94.7701H15.6149V94.4401L15.6249 94.4501Z" fill="#B01E41"/>
<path id="Vector_3" d="M17.5648 93.9199H16.9648V98.4799H15.1748V95.2499H14.5748V98.4799H13.6348V99.0699H17.5648V93.9199Z" fill="#B01E41"/>
<path id="Vector_4" d="M19.1149 93.9199H18.5049V99.0699H19.1149V93.9199Z" fill="#B01E41"/>
<path id="Vector_5" d="M32.2548 99.5H31.6448V100.34H32.2548V99.5Z" fill="#B01E41"/>
<path id="Vector_6" d="M35.1149 98.4402C35.1849 98.6002 35.3149 98.7502 35.5249 98.8802C35.7249 99.0002 35.9349 99.0602 36.1349 99.0602H38.2349V93.9102H37.6249V98.4802H36.1349C35.8949 98.4802 35.6949 98.3902 35.5249 98.2002C35.3649 98.0202 35.2749 97.7902 35.2749 97.5002V93.9102H34.6649V97.7602C34.6649 98.0102 34.6049 98.1902 34.4949 98.3002C34.3849 98.4202 34.2349 98.4702 34.0549 98.4702H33.1949C32.9549 98.4702 32.7549 98.3802 32.5849 98.1902C32.4249 98.0102 32.3349 97.7802 32.3349 97.4902V95.9802H31.7249V97.7402C31.7249 97.9902 31.6649 98.1702 31.5549 98.2802C31.4449 98.4002 31.2949 98.4502 31.1149 98.4502H29.7349C29.5049 98.4502 29.3249 98.3802 29.1749 98.2502C29.0249 98.1202 28.9549 97.9302 28.9549 97.7002V97.3702C28.9549 96.9902 28.8649 96.6602 28.6849 96.3702C28.5049 96.0802 28.2549 95.8602 27.9449 95.7102C27.6349 95.5602 27.2749 95.4902 26.8849 95.4902C26.3549 95.4902 25.9049 95.6402 25.5449 95.9502C25.1849 96.2602 24.9749 96.6402 24.9349 97.0802H25.5249C25.5749 96.8102 25.7349 96.5702 26.0149 96.3702C26.2949 96.1702 26.5849 96.0702 26.8949 96.0702C27.1349 96.0702 27.3549 96.1102 27.5749 96.2102C27.7949 96.3102 27.9749 96.4502 28.1149 96.6402C28.2649 96.8402 28.3349 97.0502 28.3349 97.3002V98.4302H24.0249C23.7949 98.4302 23.6049 98.3602 23.4649 98.2202C23.3149 98.0902 23.2549 97.8902 23.2549 97.6402V95.9502H22.6449V99.0402C22.6449 99.4402 22.5949 99.7302 22.4949 99.8902C22.3949 100.05 22.2449 100.13 22.0349 100.13C21.8649 100.13 21.7149 100.09 21.5649 100.01V100.59L21.6249 100.62C21.6249 100.62 21.7249 100.67 21.8149 100.69C21.9149 100.71 22.0149 100.72 22.1249 100.72C22.5249 100.72 22.8149 100.58 22.9949 100.3C23.1749 100.02 23.2649 99.6002 23.2649 99.0402V98.4802C23.2949 98.6302 23.3849 98.7602 23.5549 98.8602C23.7149 98.9602 23.8749 99.0102 24.0349 99.0102H28.7749C28.8949 98.8602 28.9649 98.7002 28.9749 98.5402H29.0049C29.0649 98.6702 29.1549 98.7902 29.3049 98.8802C29.4549 98.9602 29.5949 99.0102 29.7449 99.0102H31.1249C31.3449 99.0102 31.5449 98.9602 31.7349 98.8502C31.9249 98.7402 32.0649 98.5902 32.1749 98.3802C32.2449 98.5402 32.3749 98.6902 32.5849 98.8202C32.7949 98.9402 32.9949 99.0002 33.2049 99.0002H34.0549C34.2749 99.0002 34.4749 98.9502 34.6649 98.8402C34.8549 98.7302 34.9949 98.5802 35.1049 98.3702" fill="#B01E41"/>
<path id="Vector_7" d="M43.6449 94.2598H43.0249V95.0998H43.6449V94.2598Z" fill="#B01E41"/>
<path id="Vector_8" d="M41.7548 96.5302C41.9248 96.3302 42.1448 96.2302 42.4148 96.2302H43.3348V97.3202C43.3348 97.5202 43.2848 97.6902 43.1848 97.8302C43.0948 97.9702 42.9748 98.0702 42.8348 98.1302C42.6948 98.1902 42.5448 98.2302 42.3848 98.2302C42.1448 98.2302 41.9348 98.1502 41.7548 97.9902C41.5748 97.8302 41.4948 97.6002 41.4948 97.3002C41.4948 97.0002 41.5748 96.7302 41.7548 96.5402M41.8348 98.7402C42.0048 98.8002 42.1848 98.8302 42.3748 98.8302C42.5948 98.8302 42.8048 98.7702 42.9848 98.6602C43.1748 98.5502 43.3248 98.4102 43.4448 98.2502C43.5348 98.4902 43.6848 98.6902 43.8748 98.8502C44.0748 99.0102 44.3248 99.0902 44.6148 99.0902H46.8648V96.0202H46.2548V98.5002H44.6148C44.1548 98.5002 43.9248 98.2002 43.9248 97.5902V95.6602H42.4048C42.1848 95.6602 41.9948 95.6902 41.8248 95.7402C41.6548 95.8002 41.5148 95.8702 41.3948 95.9702C41.2748 96.0702 41.1848 96.1802 41.1048 96.3202C41.0348 96.4602 40.9748 96.6102 40.9348 96.7802C40.9048 96.9402 40.8848 97.1202 40.8848 97.3002C40.8848 97.5602 40.9248 97.7902 41.0148 97.9902C41.1048 98.1902 41.2148 98.3502 41.3648 98.4702C41.5148 98.5902 41.6648 98.6802 41.8448 98.7302" fill="#B01E41"/>
<path id="Vector_9" d="M42.4049 94.2598H41.7949V95.0998H42.4049V94.2598Z" fill="#B01E41"/>
<path id="Vector_10" d="M45.715 99.6504H45.105V100.49H45.715V99.6504Z" fill="#B01E41"/>
<path id="Vector_11" d="M46.945 99.6504H46.335V100.49H46.945V99.6504Z" fill="#B01E41"/>
<path id="Vector_12" d="M47.5149 98.4797V99.0596H50.2149V97.5797C50.2149 97.2397 50.1749 96.9496 50.0849 96.6996C49.9949 96.4496 49.8649 96.2396 49.7049 96.0896C49.5349 95.9396 49.3449 95.8196 49.1349 95.7496C48.9149 95.6796 48.6749 95.6396 48.4049 95.6396H47.8449V96.2197H48.5049C48.7549 96.2197 48.9649 96.2896 49.1349 96.4196C49.3049 96.5496 49.4249 96.7096 49.4949 96.9096C49.5649 97.0996 49.6049 97.3196 49.6049 97.5696V98.4797H47.5049H47.5149Z" fill="#B01E41"/>
<path id="Vector_13" d="M58.4648 98.2799C58.2848 98.4399 58.1048 98.5299 57.9248 98.5299C57.8148 98.5299 57.7148 98.4599 57.5948 98.3299C57.4848 98.1999 57.3948 98.0299 57.3048 97.8399C57.2148 97.6399 57.1348 97.4499 57.0648 97.2399C56.9848 97.0399 56.9148 96.8499 56.8448 96.6799C56.7648 96.5099 56.7048 96.3899 56.6448 96.3399H58.3848C58.6348 96.3399 58.8148 96.3999 58.9148 96.5099C59.0148 96.6299 59.0748 96.7999 59.0748 97.0199C59.0748 97.2199 59.0148 97.4399 58.9148 97.6799C58.8048 97.9099 58.6648 98.1099 58.4748 98.2799M53.4548 98.4799H52.5348C52.2248 98.4799 51.9948 98.3899 51.8248 98.2099C51.6648 98.0299 51.5848 97.7499 51.5848 97.3799C51.5848 97.0099 51.6648 96.6999 51.8248 96.4699C51.9848 96.2499 52.2248 96.1299 52.5348 96.1299C52.8648 96.1299 53.0948 96.2499 53.2548 96.4999C53.4048 96.7499 53.4748 97.1299 53.4748 97.6499C53.4748 97.9899 53.4748 98.2599 53.4448 98.4799M65.1648 99.0899C65.4148 99.0899 65.6348 99.0299 65.8248 98.9299C66.0248 98.8199 66.1748 98.6699 66.2748 98.4699H66.3048C66.3448 98.6499 66.4448 98.7899 66.6048 98.8999C66.7648 99.0099 66.9148 99.0699 67.0648 99.0699H69.3148V93.9199H68.7148V98.4799H67.0648C66.8948 98.4799 66.7448 98.4099 66.6248 98.2799C66.5048 98.1499 66.4348 97.9799 66.4348 97.7599V95.9899H65.8248V97.7699C65.8248 98.0199 65.7648 98.1999 65.6348 98.3199C65.5148 98.4299 65.3248 98.4899 65.0748 98.4899C64.7948 98.4899 64.5848 98.4299 64.4448 98.3099C64.2948 98.1799 64.2148 97.9899 64.2148 97.7399V96.1299H63.6048V97.7599C63.6048 98.0099 63.5448 98.1899 63.4248 98.3099C63.3048 98.4199 63.1148 98.4799 62.8648 98.4799C62.3548 98.4799 62.0948 98.2399 62.0948 97.7599V96.2599H61.4848V97.7399C61.4848 97.9999 61.4548 98.1799 61.3848 98.2899C61.3148 98.3999 61.2148 98.4599 61.0848 98.4599H59.0048V98.4299C59.2048 98.2399 59.3748 98.0099 59.5048 97.7399C59.6348 97.4699 59.7048 97.2299 59.7048 97.0299C59.7048 96.6499 59.5948 96.3399 59.3848 96.0899C59.1748 95.8499 58.8748 95.7299 58.4848 95.7299H55.7448V95.8599C55.8648 95.9699 55.9748 96.1599 56.0948 96.4099C56.2148 96.6599 56.3148 96.9099 56.3948 97.1499C56.4848 97.3999 56.5748 97.6399 56.6848 97.8899C56.7948 98.1399 56.9048 98.3199 57.0048 98.4199V98.4499H54.0748C54.0948 98.1199 54.1048 97.8499 54.1048 97.6499C54.1048 97.2999 54.0748 96.9899 54.0248 96.7299C53.9648 96.4699 53.8748 96.2499 53.7648 96.0599C53.6448 95.8699 53.4748 95.7299 53.2748 95.6299C53.0748 95.5299 52.8248 95.4899 52.5248 95.4899C52.2948 95.4899 52.0848 95.5199 51.9048 95.5899C51.7248 95.6599 51.5648 95.7499 51.4448 95.8699C51.3248 95.9799 51.2248 96.1199 51.1448 96.2799C51.0648 96.4399 51.0148 96.6099 50.9748 96.7899C50.9448 96.9599 50.9248 97.1499 50.9248 97.3499C50.9248 97.8399 51.0748 98.2499 51.3548 98.5599C51.6448 98.8699 52.0248 99.0299 52.5248 99.0299H53.3748C53.3348 99.2699 53.2648 99.4599 53.1948 99.6099C53.1148 99.7599 53.0148 99.8799 52.8948 99.9599C52.7748 100.04 52.6348 100.1 52.4948 100.13C52.3448 100.16 52.1648 100.18 51.9548 100.18C51.7548 100.18 51.5648 100.14 51.3948 100.07V100.65L51.4748 100.67C51.5248 100.69 51.6048 100.7 51.7248 100.73C51.8348 100.75 51.9548 100.75 52.0648 100.75C52.6348 100.75 53.0748 100.62 53.3848 100.36C53.6948 100.1 53.9048 99.6599 54.0148 99.0399H61.1848C61.6048 99.0399 61.8748 98.8599 62.0048 98.5099H62.0248C62.0548 98.6099 62.0948 98.6899 62.1648 98.7699C62.2348 98.8399 62.3148 98.8999 62.3948 98.9399C62.4848 98.9799 62.5748 99.0099 62.6748 99.0299C62.7748 99.0499 62.8648 99.0599 62.9648 99.0599C63.1948 99.0599 63.4048 99.0099 63.5948 98.9199C63.7848 98.8199 63.9348 98.6899 64.0348 98.5099H64.0548C64.1148 98.6399 64.2048 98.7499 64.3448 98.8399C64.4848 98.9199 64.6248 98.9899 64.7548 99.0099C64.8948 99.0399 65.0348 99.0599 65.1748 99.0599" fill="#B01E41"/>
<path id="Vector_14" d="M70.8649 93.9199H70.2549V99.0699H70.8649V93.9199Z" fill="#B01E41"/>
<path id="Vector_15" d="M75.0448 94.2598H74.4348V95.0998H75.0448V94.2598Z" fill="#B01E41"/>
<path id="Vector_16" d="M75.9649 97.3196C75.9649 97.5196 75.9249 97.6897 75.8249 97.8297C75.7249 97.9697 75.6149 98.0696 75.4749 98.1296C75.3349 98.1896 75.1849 98.2297 75.0249 98.2297C74.7849 98.2297 74.5749 98.1396 74.4049 97.9896C74.2349 97.8296 74.1449 97.5997 74.1449 97.2997C74.1449 96.9997 74.2349 96.7297 74.4049 96.5396C74.5749 96.3396 74.7949 96.2397 75.0649 96.2397H75.9749V97.3297L75.9649 97.3196ZM85.4649 97.0896C85.5949 96.9596 85.7449 96.8896 85.9249 96.8896C86.1049 96.8896 86.2649 96.9596 86.3849 97.0896C86.5049 97.2296 86.5749 97.4096 86.5749 97.6296C86.5749 97.8496 86.5149 98.0496 86.3749 98.1996C86.2449 98.3496 86.0949 98.4296 85.9249 98.4296C85.7549 98.4296 85.6049 98.3496 85.4749 98.1996C85.3349 98.0496 85.2749 97.8596 85.2749 97.6296C85.2749 97.3996 85.3349 97.2196 85.4649 97.0896ZM86.7749 96.2096C86.9349 96.1396 87.0949 96.0996 87.2649 96.0996C87.5949 96.0996 87.8449 96.1996 88.0549 96.4096C88.2549 96.6196 88.3549 96.9296 88.3549 97.3396V98.4697H86.7249C86.9549 98.2797 87.0749 97.9996 87.0749 97.6296C87.0749 97.3296 87.0149 97.0897 86.8949 96.8997C86.7749 96.7097 86.6149 96.5697 86.4149 96.4897C86.5149 96.3797 86.6349 96.2796 86.7849 96.2096M78.5249 99.0596C78.7449 99.0596 78.9449 99.0097 79.1349 98.8997C79.3249 98.7897 79.4749 98.6396 79.5749 98.4296C79.6449 98.5896 79.7749 98.7397 79.9849 98.8697C80.1949 98.9897 80.3949 99.0497 80.6049 99.0497H81.9449C82.1649 99.0497 82.3649 98.9996 82.5549 98.8896C82.7449 98.7796 82.8849 98.6296 82.9949 98.4196C83.0549 98.5796 83.1949 98.7296 83.3949 98.8596C83.6049 98.9796 83.8149 99.0396 84.0149 99.0396H88.7549C88.8749 98.8896 88.9449 98.7296 88.9549 98.5696H88.9849C89.0349 98.6996 89.1349 98.8197 89.2849 98.9097C89.4349 98.9897 89.5849 99.0396 89.7249 99.0396H91.9049V93.8896H91.2949V98.4596H89.7249C89.5049 98.4596 89.3249 98.3897 89.1749 98.2597C89.0249 98.1297 88.9549 97.9396 88.9549 97.7096V97.3196C88.9549 96.7196 88.8249 96.2596 88.5449 95.9596C88.2649 95.6496 87.8449 95.4996 87.2649 95.4996C86.9249 95.4996 86.6249 95.5797 86.3549 95.7397C86.0849 95.8997 85.8849 96.1197 85.7449 96.3997C85.4549 96.4397 85.2249 96.5596 85.0549 96.7696C84.8849 96.9696 84.7949 97.2497 84.7949 97.6197C84.7949 97.9897 84.9049 98.2796 85.1349 98.4596H84.0149C83.7749 98.4596 83.5749 98.3696 83.4049 98.1796C83.2349 97.9996 83.1549 97.7697 83.1549 97.4797V95.9697H82.5449V97.7297C82.5449 97.9797 82.4849 98.1596 82.3749 98.2796C82.2649 98.3996 82.1149 98.4496 81.9349 98.4496H80.5849C80.3449 98.4496 80.1449 98.3596 79.9749 98.1696C79.8149 97.9896 79.7249 97.7597 79.7249 97.4697V95.9596H79.1149V97.7197C79.1149 97.9697 79.0549 98.1496 78.9449 98.2696C78.8349 98.3896 78.6849 98.4397 78.5049 98.4397H77.2549C76.7949 98.4397 76.5649 98.1396 76.5649 97.5296V95.5996H75.0449C74.8349 95.5996 74.6349 95.6296 74.4649 95.6796C74.2849 95.7396 74.1449 95.8196 74.0349 95.9096C73.9149 96.0096 73.8149 96.1196 73.7449 96.2596C73.6649 96.3996 73.6049 96.5496 73.5749 96.7096C73.5449 96.8696 73.5249 97.0497 73.5249 97.2297C73.5249 97.4897 73.5649 97.7296 73.6549 97.9196C73.7449 98.1196 73.8549 98.2797 74.0049 98.3997C74.1549 98.5197 74.3049 98.6097 74.4849 98.6597C74.6549 98.7197 74.8349 98.7496 75.0249 98.7496C75.2449 98.7496 75.4549 98.6897 75.6349 98.5797C75.8149 98.4697 75.9749 98.3297 76.0949 98.1597C76.1849 98.3997 76.3349 98.5997 76.5349 98.7597C76.7349 98.9197 76.9749 98.9996 77.2649 98.9996H78.5049L78.5249 99.0596Z" fill="#B01E41"/>
<path id="Vector_17" d="M76.2848 94.2598H75.6648V95.0998H76.2848V94.2598Z" fill="#B01E41"/>
<path id="Vector_18" d="M80.0949 95.1095H79.5249C79.3649 95.1095 79.2849 95.0195 79.2849 94.8395C79.2849 94.7595 79.3049 94.6995 79.3349 94.6495C79.3749 94.6095 79.4149 94.5795 79.4749 94.5795C79.5349 94.5795 79.5849 94.5995 79.6249 94.6295C79.6649 94.6695 79.6849 94.7195 79.6849 94.7795H80.0749C80.0749 94.6095 80.0049 94.4795 79.8849 94.3995C79.7749 94.3095 79.6349 94.2695 79.4749 94.2695C79.2949 94.2695 79.1449 94.3095 79.0349 94.4095C78.9249 94.4995 78.8649 94.6295 78.8649 94.7995C78.8649 94.8995 78.8949 94.9895 78.9649 95.0795V95.0995H78.7349V95.4295H80.0949V95.0995V95.1095Z" fill="#B01E41"/>
<path id="Vector_19" d="M83.6649 99.5H83.0449V100.34H83.6649V99.5Z" fill="#B01E41"/>
<path id="Vector_20" d="M82.4249 99.5H81.8149V100.34H82.4249V99.5Z" fill="#B01E41"/>
<path id="Vector_21" d="M93.4249 93.9199H92.8149V99.0699H93.4249V93.9199Z" fill="#B01E41"/>
<path id="Vector_22" d="M2.34488 105.35C1.59488 105.16 0.954883 104.97 0.954883 104.4C0.954883 103.78 1.66488 103.52 2.21488 103.52C2.76488 103.52 3.31488 103.65 3.81488 104.04L4.09488 103.51C3.53488 103.06 2.90488 102.89 2.21488 102.89C1.21488 102.89 0.254883 103.4 0.254883 104.41C0.254883 105.42 1.25488 105.76 2.25488 106.01C2.97488 106.19 3.69488 106.38 3.69488 107.02C3.69488 107.71 2.93488 108.03 2.20488 108.03C1.35488 108.03 0.754883 107.71 0.304883 107.27L0.00488281 107.79C0.414883 108.22 1.08488 108.66 2.19488 108.66C3.30488 108.66 4.41488 108.17 4.41488 107.02C4.41488 105.98 3.37488 105.62 2.33488 105.36" fill="#B01E41"/>
<path id="Vector_23" d="M7.35484 108.01C6.51484 108.01 5.89484 107.35 5.89484 106.47C5.89484 105.59 6.51484 104.92 7.35484 104.92C8.19484 104.92 8.78484 105.59 8.78484 106.47C8.78484 107.35 8.15484 108.01 7.35484 108.01ZM8.78484 105.09C8.47484 104.55 7.88484 104.27 7.20484 104.27C6.03484 104.27 5.21484 105.23 5.21484 106.46C5.21484 107.69 6.03484 108.64 7.20484 108.64C7.87484 108.64 8.47484 108.37 8.78484 107.82V108.55H9.44484V104.34H8.78484V105.08V105.09Z" fill="#B01E41"/>
<path id="Vector_24" d="M13.3949 106.74C13.3949 107.39 12.9549 108.01 12.1949 108.01C11.5149 108.01 11.1349 107.69 11.1349 106.9V104.36H10.4749V106.99C10.4749 108.11 10.9649 108.66 12.0049 108.66C12.5549 108.66 13.1649 108.37 13.4149 107.83V108.57H14.0449V104.36H13.3949V106.75V106.74Z" fill="#B01E41"/>
<path id="Vector_25" d="M17.1149 108.01C16.2749 108.01 15.6549 107.35 15.6549 106.47C15.6549 105.59 16.2749 104.92 17.1149 104.92C17.9549 104.92 18.5549 105.59 18.5549 106.47C18.5549 107.35 17.9249 108.01 17.1149 108.01ZM18.5549 105.09C18.2449 104.55 17.6449 104.27 16.9749 104.27C15.8149 104.27 14.9849 105.23 14.9849 106.46C14.9849 107.69 15.8149 108.64 16.9749 108.64C17.6549 108.64 18.2749 108.37 18.5849 107.82V108.55H19.2149V102.87H18.5549V105.08V105.09Z" fill="#B01E41"/>
<path id="Vector_26" d="M20.6448 102.73C20.3948 102.73 20.2148 102.93 20.2148 103.17C20.2148 103.41 20.3948 103.6 20.6448 103.6C20.8948 103.6 21.0848 103.41 21.0848 103.17C21.0848 102.93 20.8848 102.73 20.6448 102.73Z" fill="#B01E41"/>
<path id="Vector_27" d="M20.9749 104.36H20.3149V108.57H20.9749V104.36Z" fill="#B01E41"/>
<path id="Vector_28" d="M26.4049 106.57H24.7449V103.57H26.4049C27.3549 103.57 28.0249 104.24 28.0249 105.08C28.0249 105.92 27.3549 106.57 26.4049 106.57ZM28.7549 105.08C28.7549 103.91 27.9149 102.97 26.3549 102.97H24.0549V108.56H24.7449V107.16H26.2849C26.4749 107.16 26.6849 107.14 26.8349 107.12L27.9749 108.56H28.7949L27.4649 106.93C28.2849 106.6 28.7549 105.88 28.7549 105.07" fill="#B01E41"/>
<path id="Vector_29" d="M30.035 106.2C30.135 105.41 30.715 104.86 31.435 104.86C32.155 104.86 32.765 105.42 32.835 106.2H30.035ZM31.465 104.27C30.265 104.27 29.345 105.25 29.345 106.47C29.345 107.8 30.355 108.65 31.545 108.65C32.125 108.65 32.685 108.45 33.135 108.1L32.855 107.62C32.505 107.91 32.035 108.07 31.555 108.07C30.775 108.07 30.125 107.54 30.025 106.7H33.445C33.445 106.7 33.465 106.57 33.465 106.44C33.465 105.24 32.575 104.27 31.455 104.27" fill="#B01E41"/>
<path id="Vector_30" d="M36.3649 108.01C35.5249 108.01 34.9049 107.35 34.9049 106.47C34.9049 105.59 35.5249 104.92 36.3649 104.92C37.2049 104.92 37.8049 105.59 37.8049 106.47C37.8049 107.35 37.1749 108.01 36.3649 108.01ZM37.8049 105.09C37.4949 104.55 36.8949 104.27 36.2249 104.27C35.0649 104.27 34.2449 105.23 34.2449 106.46C34.2449 107.69 35.0649 108.64 36.2249 108.64C36.9049 108.64 37.5249 108.37 37.8249 107.82V108.55H38.4649V102.87H37.8049V105.08V105.09Z" fill="#B01E41"/>
<path id="Vector_31" d="M43.635 105.35C42.885 105.16 42.2449 104.97 42.2449 104.4C42.2449 103.78 42.955 103.52 43.505 103.52C44.055 103.52 44.6049 103.65 45.1049 104.04L45.395 103.51C44.835 103.06 44.2049 102.89 43.5149 102.89C42.5049 102.89 41.545 103.4 41.545 104.41C41.545 105.42 42.555 105.76 43.555 106.01C44.275 106.19 44.9949 106.38 44.9949 107.02C44.9949 107.71 44.2349 108.03 43.5149 108.03C42.6649 108.03 42.065 107.71 41.615 107.27L41.325 107.79C41.725 108.22 42.405 108.66 43.505 108.66C44.605 108.66 45.725 108.17 45.725 107.02C45.725 105.98 44.685 105.62 43.645 105.36" fill="#B01E41"/>
<path id="Vector_32" d="M47.1849 106.2C47.2849 105.41 47.8649 104.86 48.5849 104.86C49.3049 104.86 49.9149 105.42 49.9849 106.2H47.1849ZM48.6249 104.27C47.4249 104.27 46.5049 105.25 46.5049 106.47C46.5049 107.8 47.5149 108.65 48.7049 108.65C49.2849 108.65 49.8449 108.45 50.2949 108.1L50.0049 107.62C49.6649 107.91 49.1849 108.07 48.7049 108.07C47.9349 108.07 47.2849 107.54 47.1749 106.7H50.6049C50.6049 106.7 50.6249 106.57 50.6249 106.44C50.6249 105.24 49.7349 104.27 48.6149 104.27" fill="#B01E41"/>
<path id="Vector_33" d="M53.5248 108.01C52.6848 108.01 52.0648 107.35 52.0648 106.47C52.0648 105.59 52.6848 104.92 53.5248 104.92C54.3648 104.92 54.9548 105.59 54.9548 106.47C54.9548 107.35 54.3248 108.01 53.5248 108.01ZM54.9548 105.09C54.6448 104.55 54.0548 104.27 53.3748 104.27C52.2048 104.27 51.3848 105.23 51.3848 106.46C51.3848 107.69 52.2048 108.64 53.3748 108.64C54.0448 108.64 54.6448 108.37 54.9548 107.82V108.55H55.6148V104.34H54.9548V105.08V105.09Z" fill="#B01E41"/>
<path id="Vector_34" d="M62.5648 106.92H59.6248L60.6548 104.74C60.8548 104.32 61.0548 103.8 61.0948 103.73C61.1248 103.8 61.3448 104.34 61.5348 104.74L62.5648 106.92ZM60.7848 102.96L58.1648 108.57H58.8748L59.3948 107.49H62.8248L63.3448 108.57H64.0448L61.4148 102.96H60.7948H60.7848Z" fill="#B01E41"/>
<path id="Vector_35" d="M67.4249 106.74C67.4249 107.39 66.9849 108.01 66.2249 108.01C65.5449 108.01 65.1649 107.69 65.1649 106.9V104.36H64.5049V106.99C64.5049 108.11 64.9949 108.66 66.0349 108.66C66.5949 108.66 67.1949 108.37 67.4449 107.83V108.57H68.0849V104.36H67.4249V106.75V106.74Z" fill="#B01E41"/>
<path id="Vector_36" d="M70.6549 108.06C70.3149 108.06 70.0649 107.9 70.0649 107.32V104.9H71.5049V104.36H70.0649V103.33L69.4049 103.45V104.35H68.7749V104.89H69.4049V107.29C69.4049 108.27 69.8449 108.64 70.5949 108.64C71.0549 108.64 71.3949 108.44 71.5549 108.32L71.3449 107.82C71.3449 107.82 71.0449 108.05 70.6549 108.05" fill="#B01E41"/>
<path id="Vector_37" d="M74.445 104.27C73.825 104.27 73.285 104.56 72.995 105.07V102.87H72.335V108.55H72.995V106.18C72.995 105.51 73.475 104.9 74.245 104.9C75.015 104.9 75.305 105.31 75.305 106.09V108.55H75.965V106.01C75.965 104.88 75.475 104.26 74.435 104.26" fill="#B01E41"/>
<path id="Vector_38" d="M79.045 108.01C78.175 108.01 77.505 107.35 77.505 106.47C77.505 105.59 78.175 104.91 79.045 104.91C79.915 104.91 80.585 105.57 80.585 106.47C80.585 107.37 79.915 108.01 79.045 108.01ZM79.045 104.27C77.805 104.27 76.835 105.24 76.835 106.47C76.835 107.7 77.815 108.65 79.045 108.65C80.275 108.65 81.255 107.68 81.255 106.47C81.255 105.26 80.275 104.27 79.045 104.27Z" fill="#B01E41"/>
<path id="Vector_39" d="M82.8448 105.25V104.36H82.1848V108.57H82.8448V106.58C82.8448 105.55 83.4748 105 84.4648 105V104.28C83.6248 104.28 83.0848 104.7 82.8448 105.26" fill="#B01E41"/>
<path id="Vector_40" d="M85.8849 104.36H85.2249V108.57H85.8849V104.36Z" fill="#B01E41"/>
<path id="Vector_41" d="M85.5447 102.73C85.3047 102.73 85.1147 102.93 85.1147 103.17C85.1147 103.41 85.2947 103.6 85.5447 103.6C85.7947 103.6 85.9847 103.41 85.9847 103.17C85.9847 102.93 85.7847 102.73 85.5447 102.73Z" fill="#B01E41"/>
<path id="Vector_42" d="M88.455 108.06C88.115 108.06 87.875 107.9 87.875 107.32V104.9H89.305V104.36H87.875V103.33L87.215 103.45V104.35H86.585V104.89H87.215V107.29C87.215 108.27 87.655 108.64 88.395 108.64C88.855 108.64 89.205 108.44 89.365 108.32L89.145 107.82C89.145 107.82 88.845 108.05 88.455 108.05" fill="#B01E41"/>
<path id="Vector_43" d="M93.3448 104.36L92.0948 107.16C92.0248 107.31 91.8948 107.66 91.8948 107.66C91.8948 107.66 91.7948 107.38 91.7048 107.18L90.3848 104.36H89.7048L91.5948 108.29L91.4948 108.48C91.2148 109.09 90.9248 109.22 90.4648 109.22V109.84C90.9548 109.84 91.5548 109.77 92.0148 108.77L94.0148 104.36H93.3448Z" fill="#B01E41"/>
<path id="Vector_44" d="M46.8449 34.57C45.7249 33.44 40.9949 31.61 37.0749 34.75C37.0849 34.75 40.5249 35.41 41.0049 35.94C39.3249 35.82 25.9649 37.43 30.4549 49.54C34.9649 42.98 41.5649 39.98 41.8949 39.83C41.5949 40.08 34.1149 46.4 43.0749 55.13C42.0949 48.81 43.6049 47.7 46.8449 42.34C50.0849 47.7 51.5949 48.81 50.6149 55.13C59.5749 46.4 52.0949 40.08 51.7949 39.83C52.1349 39.98 58.7149 42.98 63.2349 49.54C67.7149 37.43 54.3649 35.82 52.6749 35.94C53.1649 35.41 56.5949 34.75 56.6049 34.75C54.9849 33.45 53.2149 33 51.6349 33C49.3849 33 47.4949 33.9 46.8349 34.57M46.8349 62.69C35.9749 50.01 26.8449 48.86 19.5549 57.87C19.8949 57.64 30.8149 50.49 44.1449 65.58C34.6449 74.93 26.0849 74.66 25.5249 74.63C26.3149 76.01 33.5649 83.1 43.6749 72.63C44.7049 71.57 45.7549 70.33 46.8349 68.9C47.7349 67.69 48.6349 66.59 49.5249 65.58C50.2749 64.73 51.0149 63.95 51.7449 63.24C64.0449 51.27 73.7949 57.66 74.1149 57.87C70.9749 53.99 67.4849 51.99 63.6749 51.99C58.6349 51.99 53.0149 55.47 46.8349 62.69ZM47.9449 70.31C59.1249 84.05 67.2949 76.09 68.1449 74.62C67.6149 74.65 59.7649 74.9 50.7649 66.74C49.8249 67.68 48.7249 68.96 47.9449 70.31ZM27.9149 78.99C37.2749 92.19 46.5049 80.61 46.8449 80.18C47.1749 80.61 56.4149 92.19 65.7749 78.99C58.2349 85.22 47.6549 76.15 46.8449 72.69C46.0349 76.15 35.4549 85.22 27.9149 78.99ZM40.0649 86.57C40.0649 86.57 42.1949 87.87 46.8449 87.84C51.4849 87.87 53.6249 86.57 53.6249 86.57C48.7949 86.3 46.8449 83.36 46.8449 83.36C46.8449 83.36 44.8949 86.29 40.0649 86.57Z" fill="#B01E41"/>
</g>
<defs>
<clipPath id="clip0_729_1667">
<rect width="94" height="154" fill="white"/>
</clipPath>
</defs>
</svg>
