<svg width="17" height="17" viewBox="0 0 17 17" fill="none" xmlns="http://www.w3.org/2000/svg">
<g id="Linked In">
<path id="Combined Shape" fill-rule="evenodd" clip-rule="evenodd" d="M0 14.2602V2.51167C0 1.12438 1.12414 0 2.51167 0H14.2602C15.6475 0 16.7719 1.12414 16.7719 2.51167V14.2602C16.7719 15.6475 15.6478 16.7719 14.2602 16.7719H2.51167C1.12438 16.7719 0 15.6478 0 14.2602ZM2.5123 1.67676C2.05113 1.67676 1.67782 2.05015 1.67782 2.51124V14.2598C1.67782 14.721 2.05121 15.0943 2.5123 15.0943H14.2609C14.722 15.0943 15.0954 14.7209 15.0954 14.2598V2.51124C15.0954 2.05007 14.722 1.67676 14.2609 1.67676H2.5123ZM5.03204 6.70833C4.56567 6.70833 4.19344 7.08488 4.19344 7.54938V11.7374C4.19344 12.2024 4.5689 12.5785 5.03204 12.5785C5.49841 12.5785 5.87064 12.2019 5.87064 11.7374V7.54938C5.87064 7.08447 5.49518 6.70833 5.03204 6.70833ZM5.03204 5.86974C4.5689 5.86974 4.19344 5.49429 4.19344 5.03114C4.19344 4.568 4.5689 4.19255 5.03204 4.19255C5.49518 4.19255 5.87064 4.568 5.87064 5.03114C5.87064 5.49429 5.49518 5.86974 5.03204 5.86974ZM8.80521 11.7399V9.43397C8.80521 8.85579 9.27578 8.38552 9.85345 8.38552C10.431 8.38552 10.9017 8.85688 10.9017 9.43397V11.7399C10.9017 12.203 11.2771 12.5785 11.7403 12.5785C12.2034 12.5785 12.5789 12.203 12.5789 11.7399V9.43397C12.5789 7.9311 11.3578 6.70833 9.85345 6.70833C8.34975 6.70833 7.12801 7.92925 7.12801 9.43397V11.7399C7.12801 12.203 7.50347 12.5785 7.96661 12.5785C8.42975 12.5785 8.80521 12.203 8.80521 11.7399Z" fill="#025584"/>
</g>
</svg>
