<svg width="154" height="45" viewBox="0 0 154 45" fill="none" xmlns="http://www.w3.org/2000/svg">
<g id="Layer_1" clip-path="url(#clip0_730_41988)">
<path id="Vector" d="M7.40423 32.8123H23.5012C23.5223 32.8123 23.5434 32.8164 23.5645 32.8164C24.252 32.8164 24.8108 32.2714 24.8108 31.5962C24.8108 30.9211 24.2541 30.376 23.5645 30.376C23.5413 30.376 23.5202 30.378 23.4991 30.3801H7.40001C2.67826 30.3966 0.0506128 32.9878 0 37.6767L1.13668 37.6891L0 37.7015C0.0506128 42.3904 2.67826 44.9816 7.40423 44.9981H23.5012C23.5223 44.9981 23.5434 45.0023 23.5645 45.0023C24.252 45.0023 24.8108 44.4572 24.8108 43.782C24.8108 43.1069 24.2541 42.5618 23.5645 42.5618C23.5413 42.5618 23.5202 42.5639 23.4991 42.5659H7.40845C4.48134 42.5556 2.95241 41.4159 2.57704 38.9073H23.5012C23.5223 38.9073 23.5434 38.9114 23.5645 38.9114C24.252 38.9114 24.8108 38.3663 24.8108 37.6912C24.8108 37.016 24.2541 36.471 23.5645 36.471C23.5434 36.471 23.5202 36.473 23.4991 36.4751H2.57704C2.95241 33.9665 4.47923 32.8247 7.40423 32.8144V32.8123Z" fill="#0B2B3B"/>
<path id="Vector_2" d="M67.0829 31.6642C67.0829 31.6415 67.0871 31.6209 67.0871 31.5982C67.0871 30.9251 66.5303 30.3779 65.8407 30.3779C65.1511 30.3779 64.5944 30.923 64.5944 31.5982C64.5944 31.6188 64.5944 31.6374 64.5965 31.658V43.6808C64.5965 43.7014 64.5923 43.722 64.5923 43.7427C64.5923 44.4158 65.1511 44.9629 65.8386 44.9629C66.5261 44.9629 67.085 44.4178 67.085 43.7427C67.085 43.72 67.0829 43.6973 67.0807 43.6766V31.6663L67.0829 31.6642Z" fill="#0B2B3B"/>
<path id="Vector_3" d="M89.4939 31.5962C89.4939 30.9231 88.9372 30.376 88.2476 30.376C87.558 30.376 87.0013 30.9211 87.0013 31.5962C87.0013 31.6189 87.0034 31.6396 87.0055 31.6623V36.471H67.083V38.9032H87.0055V43.6747C87.0055 43.6974 87.0013 43.718 87.0013 43.7407C87.0013 44.4138 87.558 44.961 88.2476 44.961C88.9372 44.961 89.4939 44.4159 89.4939 43.7407C89.4939 43.7222 89.4939 43.7036 89.4918 43.6829V31.654C89.4918 31.6354 89.4939 31.6169 89.4939 31.5962Z" fill="#0B2B3B"/>
<path id="Vector_4" d="M152.724 38.5706C153.572 37.7612 153.996 36.6772 153.993 35.3517C153.998 35.3125 154 35.2753 154 35.2361C154 35.1968 153.998 35.1576 153.993 35.1205C153.993 33.7949 153.572 32.711 152.724 31.8995C151.522 30.7495 149.59 30.254 146.819 30.382H130.688V30.413C130.596 30.3902 130.499 30.3779 130.399 30.3779C129.712 30.3779 129.153 30.9229 129.153 31.5981C129.153 32.2732 129.71 32.8183 130.399 32.8183C130.499 32.8183 130.596 32.8059 130.688 32.7832V32.8142H146.91C148.915 32.7171 150.324 33.0041 150.99 33.6421C151.355 33.9911 151.526 34.4928 151.513 35.1762C151.513 35.1968 151.509 35.2175 151.509 35.2381C151.509 35.2588 151.511 35.2794 151.511 35.3001C151.522 35.9835 151.351 36.4852 150.988 36.8341C150.322 37.4721 148.911 37.7571 146.908 37.6621H130.421C130.412 37.6621 130.404 37.6621 130.395 37.6621C129.708 37.6621 129.149 38.2072 129.149 38.8823C129.149 38.903 129.151 38.9236 129.153 38.9443V43.6848C129.153 43.7055 129.149 43.7261 129.149 43.7467C129.149 43.7529 129.149 43.7591 129.149 43.7674C129.149 43.7736 129.149 43.7798 129.149 43.788C129.149 44.4611 129.706 45.0083 130.395 45.0083C131.085 45.0083 131.642 44.4632 131.642 43.788C131.642 43.7818 131.642 43.7756 131.642 43.7674C131.642 43.7612 131.642 43.755 131.642 43.7467C131.642 43.7261 131.639 43.7055 131.639 43.6848V40.0943H145.225L149.301 44.5189C149.529 44.7997 149.881 44.9794 150.273 44.9794C150.961 44.9794 151.52 44.4322 151.52 43.7591C151.52 43.4164 151.376 43.1088 151.144 42.8858L148.563 40.084C150.423 39.9642 151.794 39.4666 152.724 38.5747V38.5706Z" fill="#0B2B3B"/>
<path id="Vector_5" d="M57.1016 34.6333C57.1016 32.5211 55.3828 30.3821 52.1014 30.3821H33.5202C33.4991 30.3821 33.478 30.3779 33.4548 30.3779C32.7673 30.3779 32.2085 30.923 32.2085 31.5982C32.2085 31.6188 32.2106 31.6374 32.2106 31.658V37.6291C32.2106 37.6498 32.2085 37.6684 32.2085 37.689C32.2085 37.7097 32.2106 37.7282 32.2106 37.7489V43.6787C32.2106 43.6993 32.2085 43.7179 32.2085 43.7386C32.2085 43.7448 32.2085 43.751 32.2085 43.7592C32.2085 43.7654 32.2085 43.7716 32.2085 43.7799C32.2085 44.4529 32.7652 45.0001 33.4548 45.0001C33.4759 45.0001 33.497 44.998 33.5181 44.996H52.0993V42.5637H34.697V38.9258H52.0993C53.837 38.9258 54.6152 39.8404 54.6152 40.7448C54.6152 41.6491 53.837 42.5637 52.0993 42.5637V44.996C55.3828 44.996 57.0995 42.8569 57.0995 40.7448C57.0995 39.6257 56.6186 38.5004 55.6781 37.689C56.6186 36.8776 57.0995 35.7503 57.0995 34.6333H57.1016ZM54.6173 34.6333C54.6173 35.5397 53.8391 36.4523 52.1014 36.4523L47.2995 36.4729H34.7033V36.4936H34.6991V32.8576H52.1014V32.8143C53.8391 32.8143 54.6173 33.7289 54.6173 34.6333Z" fill="#0B2B3B"/>
<path id="Vector_6" d="M121.452 42.9209L121.433 42.9002C121.422 42.8899 121.414 42.8775 121.403 42.8672L110.254 30.766C110.026 30.5203 109.699 30.3613 109.332 30.3613C109.33 30.3613 109.328 30.3613 109.326 30.3613C109.324 30.3613 109.322 30.3613 109.32 30.3613C109.126 30.3613 108.942 30.4067 108.78 30.4852C108.56 30.5802 108.375 30.7371 108.244 30.9312L97.2464 42.8692C97.2464 42.8692 97.2295 42.8878 97.219 42.8981L97.1958 42.9229C96.8394 43.3111 96.7213 43.9119 97.1283 44.5189C97.181 44.5974 97.2527 44.6655 97.3328 44.7171C97.995 45.1301 98.6551 44.967 99.0389 44.552L104.511 38.6118C107.084 35.8204 111.559 35.8204 114.132 38.6118L119.605 44.552C119.986 44.9649 120.646 45.1301 121.309 44.7171C121.389 44.6676 121.46 44.5974 121.513 44.5189C121.92 43.9119 121.802 43.309 121.446 42.9229L121.452 42.9209Z" fill="#0B2B3B"/>
<path id="Vector_7" d="M109.324 38.7891L107.506 41.8717L105.688 44.9542L109.324 43.4883L112.959 44.9542L111.142 41.8717L109.324 38.7891Z" fill="#B01E41"/>
<path id="Vector_8" d="M129.286 13.3627C129.286 13.373 129.288 13.3833 129.29 13.3937V13.4019C129.311 14.0564 129.858 14.5809 130.532 14.5809C131.207 14.5809 131.751 14.0564 131.775 13.4019V13.3937C131.775 13.3937 131.777 13.373 131.777 13.3627C131.777 13.3524 131.775 13.3421 131.775 13.3317V1.24914C131.775 1.23882 131.777 1.22849 131.777 1.21817C131.777 0.545079 131.218 0 130.53 0C129.843 0 129.286 0.545079 129.286 1.22023C129.286 1.23056 129.288 1.24088 129.29 1.2512V13.3317C129.29 13.3421 129.286 13.3524 129.286 13.3627Z" fill="#0B2B3B"/>
<path id="Vector_9" d="M23.6996 6.11328C23.0121 6.11328 22.4532 6.65836 22.4532 7.33352C22.4532 7.35416 22.4554 7.37481 22.4575 7.39546V13.4429C22.4448 16.7114 20.9306 18.2 17.5543 18.2619C17.529 18.2619 17.5037 18.2578 17.4763 18.2578C16.7888 18.2578 16.23 18.8029 16.23 19.478C16.23 20.1532 16.7867 20.6983 17.4763 20.6983C17.4805 20.6983 17.4848 20.6983 17.489 20.6983C22.2782 20.6508 24.9248 18.0782 24.9417 13.4491V7.39546C24.9417 7.37481 24.9438 7.35623 24.9438 7.33558C24.9438 6.66249 24.3871 6.11535 23.6975 6.11535L23.6996 6.11328Z" fill="#0B2B3B"/>
<path id="Vector_10" d="M32.3438 13.3628C32.3438 14.0359 32.9005 14.583 33.5901 14.583C33.6344 14.583 33.6808 14.581 33.7251 14.5748V14.5789H84.5888V14.6099C84.8145 14.6099 85.0317 14.5996 85.2426 14.5789H120.349C120.378 14.5789 120.408 14.583 120.437 14.583C120.467 14.583 120.496 14.581 120.526 14.5789H120.587V14.5727C121.205 14.5005 121.684 13.9863 121.684 13.3628C121.684 13.3401 121.682 13.3174 121.68 13.2967V7.37726C121.68 7.35455 121.684 7.33184 121.684 7.31119C121.684 6.6381 121.127 6.09096 120.437 6.09096C119.794 6.09096 119.263 6.56997 119.2 7.18318H119.193C119.193 7.18318 118.402 11.9258 113.042 12.1446H89.1629C89.4476 11.581 89.5932 10.9678 89.5932 10.3546C89.5932 8.24237 87.8765 6.10335 84.593 6.10335H66.1573C66.0983 6.09509 66.0413 6.08889 65.9802 6.08889C65.2927 6.08889 64.7338 6.63397 64.7338 7.30913C64.7338 7.98428 65.2906 8.52936 65.9802 8.52936V8.53762H84.5951C86.3329 8.53762 87.111 9.45228 87.111 10.3566C87.111 11.168 86.4826 11.9857 85.1013 12.1467H41.473C41.4498 12.1446 41.4266 12.1426 41.4034 12.1405C34.8533 11.5232 34.8491 5.7317 34.8491 5.7317L34.8407 5.7379V1.27816C34.8407 1.25751 34.8428 1.23893 34.8428 1.21828C34.8428 0.545191 34.286 -0.00195312 33.5964 -0.00195312C32.9068 -0.00195312 32.3501 0.545191 32.3501 1.21828C32.3501 1.23893 32.3522 1.25957 32.3543 1.28229V13.2988C32.3543 13.3195 32.3501 13.3401 32.3501 13.3628H32.3438Z" fill="#0B2B3B"/>
<path id="Vector_11" d="M129.29 19.7924H131.03C131.307 19.7924 131.532 19.5735 131.532 19.301C131.532 19.0284 131.309 18.8096 131.03 18.8096H129.29C129.014 18.8096 128.789 19.0284 128.789 19.301C128.789 19.5735 129.012 19.7924 129.29 19.7924Z" fill="#0B2B3B"/>
<path id="Vector_12" d="M129.792 17.0439C129.516 17.0439 129.291 17.2628 129.291 17.5353V18.8113H130.292C130.292 18.3777 130.653 18.0247 131.096 18.0247H131.239C131.488 18.0247 131.72 17.8574 131.76 17.6159C131.811 17.3082 131.57 17.0439 131.267 17.0439H129.79H129.792Z" fill="#0B2B3B"/>
<path id="Vector_13" d="M107.506 20.1392L105.688 23.2218L109.324 21.7559L112.959 23.2218L111.142 20.1392L109.324 17.0566L107.506 20.1392Z" fill="#B01E41"/>
</g>
<defs>
<clipPath id="clip0_730_41988">
<rect width="154" height="45" fill="white"/>
</clipPath>
</defs>
</svg>
