<svg width="41" height="40" viewBox="0 0 41 40" fill="none" xmlns="http://www.w3.org/2000/svg">
<g filter="url(#filter0_d_730_28651)">
<path d="M25.375 18.125C25.375 15.8984 24.1641 13.8672 22.25 12.7344C20.2969 11.6016 17.9141 11.6016 16 12.7344C14.0469 13.8672 12.875 15.8984 12.875 18.125C12.875 20.3906 14.0469 22.4219 16 23.5547C17.9141 24.6875 20.2969 24.6875 22.25 23.5547C24.1641 22.4219 25.375 20.3906 25.375 18.125ZM24.1641 24.5312C22.7578 25.625 21 26.25 19.125 26.25C14.6328 26.25 11 22.6172 11 18.125C11 13.6719 14.6328 10 19.125 10C23.5781 10 27.25 13.6719 27.25 18.125C27.25 20.0391 26.5859 21.7969 25.4922 23.2031L30.7266 28.3984C31.0781 28.7891 31.0781 29.375 30.7266 29.7266C30.3359 30.1172 29.75 30.1172 29.3984 29.7266L24.1641 24.5312Z" fill="#025584"/>
</g>
<defs>
<filter id="filter0_d_730_28651" x="-2" y="1" width="45" height="40" filterUnits="userSpaceOnUse" color-interpolation-filters="sRGB">
<feFlood flood-opacity="0" result="BackgroundImageFix"/>
<feColorMatrix in="SourceAlpha" type="matrix" values="0 0 0 0 0 0 0 0 0 0 0 0 0 0 0 0 0 0 127 0" result="hardAlpha"/>
<feOffset dy="1"/>
<feGaussianBlur stdDeviation="1"/>
<feColorMatrix type="matrix" values="0 0 0 0 0.0627451 0 0 0 0 0.0941176 0 0 0 0 0.156863 0 0 0 0.05 0"/>
<feBlend mode="normal" in2="BackgroundImageFix" result="effect1_dropShadow_730_28651"/>
<feBlend mode="normal" in="SourceGraphic" in2="effect1_dropShadow_730_28651" result="shape"/>
</filter>
</defs>
</svg>
