<svg width="17" height="16" viewBox="0 0 17 16" fill="none" xmlns="http://www.w3.org/2000/svg">
<g id="twitter 1" clip-path="url(#clip0_730_15215)">
<path id="Vector" d="M9.68057 6.78196L15.4588 0.0652159L15.601 -0.1H15.383H14.0019H13.956L13.9261 -0.0652165L8.95008 5.7189L4.98165 -0.0566311L4.95185 -0.1H4.89923H0.237305H0.0472613L0.154886 0.0566316L6.22352 8.88863L0.161499 15.9348L0.0193562 16.1H0.237305H1.6185H1.66438L1.69431 16.0652L6.95385 9.95148L11.1489 16.0566L11.1787 16.1H11.2313H15.8933H16.0833L15.9757 15.9434L9.68057 6.78196ZM11.9332 14.9075L7.76299 8.94269V8.94235L7.74495 8.91654L7.12565 8.03075L2.30809 1.13974H4.18549L8.13222 6.78525L8.13222 6.78525L8.75152 7.67104L13.8106 14.9075H11.9332Z" fill="#025584" stroke="#025584" stroke-width="0.2"/>
</g>
<defs>
<clipPath id="clip0_730_15215">
<rect width="16" height="16" fill="white" transform="translate(0.0654297)"/>
</clipPath>
</defs>
</svg>
