<svg width="14" height="20" viewBox="0 0 14 20" fill="none" xmlns="http://www.w3.org/2000/svg">
<path d="M12.9766 5.35156L8.28906 10.0391L12.9375 14.6875C13.3281 15.0391 13.3281 15.625 12.9375 15.9766C12.5859 16.3672 12 16.3672 11.6484 15.9766L6.96094 11.3281L2.3125 15.9766C1.96094 16.3672 1.375 16.3672 1.02344 15.9766C0.632812 15.625 0.632812 15.0391 1.02344 14.6484L5.67188 10L1.02344 5.35156C0.632812 5 0.632812 4.41406 1.02344 4.02344C1.375 3.67188 1.96094 3.67188 2.35156 4.02344L7 8.71094L11.6484 4.0625C12 3.67188 12.5859 3.67188 12.9766 4.0625C13.3281 4.41406 13.3281 5 12.9766 5.35156Z" fill="white"/>
</svg>
